<mxfile host="app.diagrams.net" modified="2023-04-06T19:05:27.081Z" agent="Mozilla/5.0 (Macintosh; Intel Mac OS X 10_15_7) AppleWebKit/537.36 (KHTML, like Gecko) Chrome/111.0.0.0 Safari/537.36" etag="h79XoeVEs2aSzAJsrcSp" version="21.1.4" type="google">
  <diagram name="Страница 1" id="0DjqOohvZtHS_T6HSmUr">
    <mxGraphModel grid="1" page="0" gridSize="10" guides="1" tooltips="1" connect="1" arrows="1" fold="1" pageScale="1" pageWidth="1169" pageHeight="827" math="0" shadow="0">
      <root>
        <mxCell id="0" />
        <mxCell id="1" parent="0" />
        <mxCell id="iytk3y117ulOqiC8ZTO7-17" style="edgeStyle=none;curved=1;rounded=0;orthogonalLoop=1;jettySize=auto;html=1;fontSize=13;startSize=8;endSize=8;" edge="1" parent="1" source="iytk3y117ulOqiC8ZTO7-1" target="iytk3y117ulOqiC8ZTO7-2">
          <mxGeometry relative="1" as="geometry" />
        </mxCell>
        <mxCell id="iytk3y117ulOqiC8ZTO7-1" value="Начало" style="rounded=1;whiteSpace=wrap;html=1;fontSize=13;arcSize=50;" vertex="1" parent="1">
          <mxGeometry x="-160" y="60" width="240" height="20" as="geometry" />
        </mxCell>
        <mxCell id="iytk3y117ulOqiC8ZTO7-18" style="edgeStyle=none;curved=1;rounded=0;orthogonalLoop=1;jettySize=auto;html=1;entryX=0.5;entryY=0;entryDx=0;entryDy=0;fontSize=13;startSize=8;endSize=8;" edge="1" parent="1" source="iytk3y117ulOqiC8ZTO7-2" target="iytk3y117ulOqiC8ZTO7-3">
          <mxGeometry relative="1" as="geometry" />
        </mxCell>
        <mxCell id="iytk3y117ulOqiC8ZTO7-2" value="Ввод размерности&lt;br style=&quot;font-size: 13px;&quot;&gt;&amp;nbsp;матрицы(n)" style="shape=parallelogram;perimeter=parallelogramPerimeter;whiteSpace=wrap;html=1;fixedSize=1;fontSize=13;" vertex="1" parent="1">
          <mxGeometry x="-160" y="120" width="240" height="40" as="geometry" />
        </mxCell>
        <mxCell id="iytk3y117ulOqiC8ZTO7-9" style="edgeStyle=none;curved=1;rounded=0;orthogonalLoop=1;jettySize=auto;html=1;entryX=0.5;entryY=0;entryDx=0;entryDy=0;fontSize=13;startSize=8;endSize=8;" edge="1" parent="1" source="iytk3y117ulOqiC8ZTO7-3" target="iytk3y117ulOqiC8ZTO7-4">
          <mxGeometry relative="1" as="geometry" />
        </mxCell>
        <mxCell id="iytk3y117ulOqiC8ZTO7-3" value="Объявление нулевой &lt;br style=&quot;font-size: 13px;&quot;&gt;матрицы n*n" style="rounded=0;whiteSpace=wrap;html=1;fontSize=13;" vertex="1" parent="1">
          <mxGeometry x="-160" y="200" width="240" height="40" as="geometry" />
        </mxCell>
        <mxCell id="iytk3y117ulOqiC8ZTO7-10" style="edgeStyle=none;curved=1;rounded=0;orthogonalLoop=1;jettySize=auto;html=1;entryX=0.5;entryY=0;entryDx=0;entryDy=0;fontSize=13;startSize=8;endSize=8;" edge="1" parent="1" source="iytk3y117ulOqiC8ZTO7-4" target="iytk3y117ulOqiC8ZTO7-5">
          <mxGeometry relative="1" as="geometry" />
        </mxCell>
        <mxCell id="iytk3y117ulOqiC8ZTO7-16" style="edgeStyle=orthogonalEdgeStyle;rounded=0;orthogonalLoop=1;jettySize=auto;html=1;entryX=0.5;entryY=0;entryDx=0;entryDy=0;fontSize=13;startSize=8;endSize=8;exitX=1;exitY=0.5;exitDx=0;exitDy=0;" edge="1" parent="1" source="iytk3y117ulOqiC8ZTO7-4">
          <mxGeometry relative="1" as="geometry">
            <Array as="points">
              <mxPoint x="160" y="300" />
              <mxPoint x="160" y="600" />
              <mxPoint x="-40" y="600" />
            </Array>
            <mxPoint x="-40" y="640" as="targetPoint" />
          </mxGeometry>
        </mxCell>
        <mxCell id="iytk3y117ulOqiC8ZTO7-4" value="Цикл i (n)" style="shape=hexagon;perimeter=hexagonPerimeter2;whiteSpace=wrap;html=1;fixedSize=1;fontSize=13;" vertex="1" parent="1">
          <mxGeometry x="-160" y="280" width="240" height="40" as="geometry" />
        </mxCell>
        <mxCell id="iytk3y117ulOqiC8ZTO7-11" style="edgeStyle=none;curved=1;rounded=0;orthogonalLoop=1;jettySize=auto;html=1;entryX=0.5;entryY=0;entryDx=0;entryDy=0;fontSize=13;startSize=8;endSize=8;" edge="1" parent="1" source="iytk3y117ulOqiC8ZTO7-5" target="iytk3y117ulOqiC8ZTO7-7">
          <mxGeometry relative="1" as="geometry" />
        </mxCell>
        <mxCell id="iytk3y117ulOqiC8ZTO7-13" style="edgeStyle=orthogonalEdgeStyle;rounded=0;orthogonalLoop=1;jettySize=auto;html=1;entryX=0;entryY=0.5;entryDx=0;entryDy=0;fontSize=13;startSize=8;endSize=8;exitX=1;exitY=0.5;exitDx=0;exitDy=0;" edge="1" parent="1" source="iytk3y117ulOqiC8ZTO7-5" target="iytk3y117ulOqiC8ZTO7-4">
          <mxGeometry relative="1" as="geometry">
            <Array as="points">
              <mxPoint x="120" y="380" />
              <mxPoint x="120" y="560" />
              <mxPoint x="-240" y="560" />
              <mxPoint x="-240" y="300" />
            </Array>
          </mxGeometry>
        </mxCell>
        <mxCell id="iytk3y117ulOqiC8ZTO7-5" value="Цикл j (n)" style="shape=hexagon;perimeter=hexagonPerimeter2;whiteSpace=wrap;html=1;fixedSize=1;fontSize=13;" vertex="1" parent="1">
          <mxGeometry x="-160" y="360" width="240" height="40" as="geometry" />
        </mxCell>
        <mxCell id="iytk3y117ulOqiC8ZTO7-12" style="edgeStyle=orthogonalEdgeStyle;rounded=0;orthogonalLoop=1;jettySize=auto;html=1;entryX=0;entryY=0.5;entryDx=0;entryDy=0;fontSize=13;startSize=8;endSize=8;" edge="1" parent="1" source="iytk3y117ulOqiC8ZTO7-7" target="iytk3y117ulOqiC8ZTO7-5">
          <mxGeometry relative="1" as="geometry">
            <Array as="points">
              <mxPoint x="-40" y="520" />
              <mxPoint x="-200" y="520" />
              <mxPoint x="-200" y="380" />
            </Array>
          </mxGeometry>
        </mxCell>
        <mxCell id="iytk3y117ulOqiC8ZTO7-7" value="Ввод элемента матрицы ij" style="shape=parallelogram;perimeter=parallelogramPerimeter;whiteSpace=wrap;html=1;fixedSize=1;fontSize=13;" vertex="1" parent="1">
          <mxGeometry x="-160" y="440" width="240" height="40" as="geometry" />
        </mxCell>
        <mxCell id="iytk3y117ulOqiC8ZTO7-28" style="edgeStyle=none;curved=1;rounded=0;orthogonalLoop=1;jettySize=auto;html=1;entryX=0.5;entryY=0;entryDx=0;entryDy=0;fontSize=13;startSize=8;endSize=8;" edge="1" parent="1" source="iytk3y117ulOqiC8ZTO7-14" target="iytk3y117ulOqiC8ZTO7-15">
          <mxGeometry relative="1" as="geometry" />
        </mxCell>
        <mxCell id="iytk3y117ulOqiC8ZTO7-14" value="min_diag - минимальный элемент главной диагонали" style="rounded=0;whiteSpace=wrap;html=1;fontSize=13;" vertex="1" parent="1">
          <mxGeometry x="-160" y="720" width="240" height="40" as="geometry" />
        </mxCell>
        <mxCell id="iytk3y117ulOqiC8ZTO7-29" style="edgeStyle=none;curved=1;rounded=0;orthogonalLoop=1;jettySize=auto;html=1;entryX=0.5;entryY=0;entryDx=0;entryDy=0;fontSize=13;startSize=8;endSize=8;" edge="1" parent="1" source="iytk3y117ulOqiC8ZTO7-15" target="iytk3y117ulOqiC8ZTO7-19">
          <mxGeometry relative="1" as="geometry" />
        </mxCell>
        <mxCell id="iytk3y117ulOqiC8ZTO7-15" value="max_diag - максимальный элемент главной диагонали" style="rounded=0;whiteSpace=wrap;html=1;fontSize=13;" vertex="1" parent="1">
          <mxGeometry x="-160" y="800" width="240" height="40" as="geometry" />
        </mxCell>
        <mxCell id="iytk3y117ulOqiC8ZTO7-23" style="edgeStyle=orthogonalEdgeStyle;rounded=0;orthogonalLoop=1;jettySize=auto;html=1;entryX=0.5;entryY=0;entryDx=0;entryDy=0;fontSize=13;startSize=8;endSize=8;exitX=1;exitY=0.5;exitDx=0;exitDy=0;" edge="1" parent="1" source="iytk3y117ulOqiC8ZTO7-19" target="iytk3y117ulOqiC8ZTO7-20">
          <mxGeometry relative="1" as="geometry" />
        </mxCell>
        <mxCell id="iytk3y117ulOqiC8ZTO7-24" style="edgeStyle=orthogonalEdgeStyle;rounded=0;orthogonalLoop=1;jettySize=auto;html=1;entryX=0.5;entryY=0;entryDx=0;entryDy=0;fontSize=13;startSize=8;endSize=8;exitX=0;exitY=0.5;exitDx=0;exitDy=0;" edge="1" parent="1" source="iytk3y117ulOqiC8ZTO7-19" target="iytk3y117ulOqiC8ZTO7-21">
          <mxGeometry relative="1" as="geometry" />
        </mxCell>
        <mxCell id="iytk3y117ulOqiC8ZTO7-19" value="min_diag == max_diag" style="rhombus;whiteSpace=wrap;html=1;fontSize=13;" vertex="1" parent="1">
          <mxGeometry x="-160" y="880" width="240" height="40" as="geometry" />
        </mxCell>
        <mxCell id="iytk3y117ulOqiC8ZTO7-27" style="edgeStyle=orthogonalEdgeStyle;rounded=0;orthogonalLoop=1;jettySize=auto;html=1;fontSize=13;startSize=8;endSize=8;entryX=0.5;entryY=0;entryDx=0;entryDy=0;" edge="1" parent="1" source="iytk3y117ulOqiC8ZTO7-20" target="iytk3y117ulOqiC8ZTO7-25">
          <mxGeometry relative="1" as="geometry">
            <mxPoint x="-40" y="990" as="targetPoint" />
          </mxGeometry>
        </mxCell>
        <mxCell id="iytk3y117ulOqiC8ZTO7-20" value="&lt;span style=&quot;color: rgb(0, 0, 0); font-family: Helvetica; font-size: 13px; font-style: normal; font-variant-ligatures: normal; font-variant-caps: normal; font-weight: 400; letter-spacing: normal; orphans: 2; text-align: center; text-indent: 0px; text-transform: none; widows: 2; word-spacing: 0px; -webkit-text-stroke-width: 0px; background-color: rgb(255, 255, 255); text-decoration-thickness: initial; text-decoration-style: initial; text-decoration-color: initial; float: none; display: inline !important;&quot;&gt;Заполнение диагоналей значениями min_diag&lt;/span&gt;" style="rounded=0;whiteSpace=wrap;html=1;fontSize=13;" vertex="1" parent="1">
          <mxGeometry y="960" width="240" height="40" as="geometry" />
        </mxCell>
        <mxCell id="iytk3y117ulOqiC8ZTO7-26" style="edgeStyle=orthogonalEdgeStyle;rounded=0;orthogonalLoop=1;jettySize=auto;html=1;entryX=0.5;entryY=0;entryDx=0;entryDy=0;fontSize=13;startSize=8;endSize=8;" edge="1" parent="1" source="iytk3y117ulOqiC8ZTO7-21" target="iytk3y117ulOqiC8ZTO7-25">
          <mxGeometry relative="1" as="geometry" />
        </mxCell>
        <mxCell id="iytk3y117ulOqiC8ZTO7-21" value="Замена значений: максимальное побочной диагонали &amp;lt;-&amp;gt; минимальное главной" style="rounded=0;whiteSpace=wrap;html=1;fontSize=13;" vertex="1" parent="1">
          <mxGeometry x="-320" y="960" width="240" height="40" as="geometry" />
        </mxCell>
        <mxCell id="iytk3y117ulOqiC8ZTO7-33" style="edgeStyle=none;curved=1;rounded=0;orthogonalLoop=1;jettySize=auto;html=1;entryX=0.5;entryY=0;entryDx=0;entryDy=0;fontSize=13;startSize=8;endSize=8;" edge="1" parent="1" source="iytk3y117ulOqiC8ZTO7-25" target="iytk3y117ulOqiC8ZTO7-32">
          <mxGeometry relative="1" as="geometry" />
        </mxCell>
        <mxCell id="iytk3y117ulOqiC8ZTO7-25" value="Вывод полученной матрицы" style="shape=parallelogram;perimeter=parallelogramPerimeter;whiteSpace=wrap;html=1;fixedSize=1;fontSize=13;" vertex="1" parent="1">
          <mxGeometry x="-160" y="1080" width="240" height="40" as="geometry" />
        </mxCell>
        <mxCell id="iytk3y117ulOqiC8ZTO7-30" value="Нет" style="text;html=1;align=center;verticalAlign=middle;resizable=0;points=[];autosize=1;strokeColor=none;fillColor=none;fontSize=13;" vertex="1" parent="1">
          <mxGeometry x="-225" y="870" width="50" height="30" as="geometry" />
        </mxCell>
        <mxCell id="iytk3y117ulOqiC8ZTO7-31" value="Да" style="text;html=1;align=center;verticalAlign=middle;resizable=0;points=[];autosize=1;strokeColor=none;fillColor=none;fontSize=13;" vertex="1" parent="1">
          <mxGeometry x="100" y="870" width="40" height="30" as="geometry" />
        </mxCell>
        <mxCell id="iytk3y117ulOqiC8ZTO7-32" value="Конец" style="rounded=1;whiteSpace=wrap;html=1;fontSize=13;arcSize=50;" vertex="1" parent="1">
          <mxGeometry x="-160" y="1160" width="240" height="20" as="geometry" />
        </mxCell>
        <mxCell id="o4OebZKthwE1FW5aY0QY-2" style="edgeStyle=orthogonalEdgeStyle;rounded=0;orthogonalLoop=1;jettySize=auto;html=1;entryX=0.5;entryY=0;entryDx=0;entryDy=0;fontSize=13;" edge="1" parent="1" target="iytk3y117ulOqiC8ZTO7-14">
          <mxGeometry relative="1" as="geometry">
            <mxPoint x="-40" y="680" as="sourcePoint" />
          </mxGeometry>
        </mxCell>
        <mxCell id="o4OebZKthwE1FW5aY0QY-3" value="&lt;font style=&quot;font-size: 13px;&quot;&gt;Вывод исходной матрицы&lt;/font&gt;" style="shape=parallelogram;perimeter=parallelogramPerimeter;whiteSpace=wrap;html=1;fixedSize=1;fontSize=13;" vertex="1" parent="1">
          <mxGeometry x="-160" y="640" width="240" height="40" as="geometry" />
        </mxCell>
      </root>
    </mxGraphModel>
  </diagram>
</mxfile>
